<svg width="108" height="25" viewBox="0 0 108 25" fill="none" xmlns="http://www.w3.org/2000/svg">
<path d="M32.2963 18.2109V6.21335H39.4902V7.50216H33.7492V11.556H38.9512V12.8448H33.7492V18.2109H32.2963ZM44.4389 18.4218C43.8687 18.4218 43.3512 18.3144 42.8865 18.0996C42.4217 17.8809 42.0527 17.5665 41.7793 17.1565C41.5059 16.7425 41.3692 16.2426 41.3692 15.6568C41.3692 15.1412 41.4708 14.7234 41.6738 14.4031C41.8769 14.079 42.1484 13.8251 42.4881 13.6415C42.8279 13.458 43.2028 13.3213 43.6129 13.2315C44.0269 13.1377 44.4428 13.0635 44.8607 13.0089C45.4075 12.9386 45.8507 12.8858 46.1905 12.8507C46.5342 12.8116 46.7841 12.7472 46.9404 12.6574C47.1005 12.5675 47.1805 12.4113 47.1805 12.1887V12.1418C47.1805 11.5638 47.0224 11.1147 46.706 10.7945C46.3936 10.4742 45.9191 10.3141 45.2825 10.3141C44.6225 10.3141 44.105 10.4586 43.7301 10.7476C43.3551 11.0366 43.0915 11.3451 42.9392 11.6732L41.627 11.2045C41.8613 10.6578 42.1737 10.2321 42.5643 9.92745C42.9587 9.61892 43.3883 9.40412 43.8531 9.28305C44.3217 9.15807 44.7826 9.09558 45.2356 9.09558C45.5246 9.09558 45.8566 9.13073 46.2315 9.20103C46.6104 9.26742 46.9755 9.40607 47.327 9.61696C47.6824 9.82786 47.9773 10.1462 48.2116 10.5719C48.4459 10.9975 48.5631 11.5677 48.5631 12.2824V18.2109H47.1805V16.9924H47.1103C47.0165 17.1877 46.8603 17.3966 46.6416 17.6193C46.4229 17.8419 46.1319 18.0313 45.7687 18.1875C45.4055 18.3437 44.9622 18.4218 44.4389 18.4218ZM44.6498 17.1799C45.1966 17.1799 45.6574 17.0725 46.0323 16.8577C46.4112 16.6429 46.6963 16.3656 46.8876 16.0258C47.0829 15.6861 47.1805 15.3287 47.1805 14.9538V13.6884C47.122 13.7587 46.9931 13.8231 46.7939 13.8817C46.5986 13.9364 46.3721 13.9852 46.1144 14.0282C45.8605 14.0672 45.6125 14.1024 45.3704 14.1336C45.1321 14.161 44.9388 14.1844 44.7904 14.2039C44.4311 14.2508 44.0952 14.327 43.7828 14.4324C43.4743 14.5339 43.2243 14.6882 43.0329 14.8952C42.8455 15.0983 42.7518 15.3756 42.7518 15.7271C42.7518 16.2074 42.9295 16.5706 43.2848 16.8167C43.6442 17.0588 44.0991 17.1799 44.6498 17.1799ZM54.742 18.3984C53.8984 18.3984 53.172 18.1992 52.5628 17.8009C51.9535 17.4025 51.4849 16.8538 51.1568 16.1547C50.8287 15.4556 50.6647 14.657 50.6647 13.7587C50.6647 12.8448 50.8326 12.0384 51.1685 11.3393C51.5083 10.6363 51.9809 10.0876 52.5862 9.69312C53.1955 9.29476 53.9062 9.09558 54.7186 9.09558C55.3513 9.09558 55.9215 9.21275 56.4292 9.44708C56.9369 9.6814 57.3528 10.0095 57.677 10.4313C58.0011 10.853 58.2023 11.3451 58.2804 11.9075H56.8978C56.7924 11.4974 56.5581 11.1342 56.1948 10.8179C55.8355 10.4976 55.3513 10.3375 54.742 10.3375C54.2031 10.3375 53.7305 10.4781 53.3243 10.7593C52.9221 11.0366 52.6077 11.4291 52.3812 11.9368C52.1586 12.4406 52.0472 13.0323 52.0472 13.7118C52.0472 14.407 52.1566 15.0124 52.3753 15.5279C52.5979 16.0434 52.9104 16.4437 53.3126 16.7288C53.7188 17.0139 54.1953 17.1565 54.742 17.1565C55.1013 17.1565 55.4274 17.094 55.7203 16.969C56.0132 16.844 56.2612 16.6644 56.4643 16.43C56.6674 16.1957 56.8119 15.9145 56.8978 15.5865H58.2804C58.2023 16.1176 58.0089 16.596 57.7004 17.0217C57.3958 17.4435 56.9916 17.7794 56.4878 18.0293C55.9879 18.2754 55.4059 18.3984 54.742 18.3984ZM64.0741 18.3984C63.2071 18.3984 62.4592 18.207 61.8304 17.8243C61.2056 17.4377 60.7232 16.8987 60.3835 16.2074C60.0476 15.5123 59.8797 14.7038 59.8797 13.7821C59.8797 12.8605 60.0476 12.0481 60.3835 11.3451C60.7232 10.6382 61.1958 10.0876 61.8011 9.69312C62.4104 9.29476 63.1212 9.09558 63.9335 9.09558C64.4022 9.09558 64.865 9.17369 65.3219 9.32991C65.7789 9.48613 66.1948 9.73999 66.5697 10.0915C66.9446 10.4391 67.2434 10.8999 67.466 11.474C67.6886 12.0481 67.7999 12.755 67.7999 13.5947V14.1805H60.8638V12.9854H66.394C66.394 12.4777 66.2924 12.0247 66.0893 11.6263C65.8902 11.228 65.6051 10.9136 65.234 10.6832C64.8669 10.4527 64.4334 10.3375 63.9335 10.3375C63.3829 10.3375 62.9064 10.4742 62.5041 10.7476C62.1058 11.0171 61.7992 11.3686 61.5844 11.8021C61.3696 12.2356 61.2622 12.7003 61.2622 13.1963V13.993C61.2622 14.6726 61.3794 15.2486 61.6137 15.7212C61.8519 16.1899 62.1819 16.5472 62.6037 16.7933C63.0255 17.0354 63.5156 17.1565 64.0741 17.1565C64.4373 17.1565 64.7654 17.1057 65.0583 17.0041C65.3551 16.8987 65.6109 16.7425 65.8257 16.5355C66.0405 16.3246 66.2065 16.0629 66.3237 15.7505L67.6593 16.1254C67.5187 16.5785 67.2825 16.9768 66.9505 17.3205C66.6185 17.6603 66.2085 17.9258 65.7203 18.1172C65.2321 18.3047 64.6834 18.3984 64.0741 18.3984ZM70.0905 18.2109V6.21335H71.473V10.6421H71.5902C71.6917 10.4859 71.8323 10.2868 72.012 10.0446C72.1955 9.79857 72.4572 9.57986 72.797 9.38849C73.1407 9.19322 73.6054 9.09558 74.1912 9.09558C74.9489 9.09558 75.6167 9.285 76.1947 9.66383C76.7727 10.0427 77.2238 10.5797 77.548 11.2748C77.8721 11.97 78.0342 12.7902 78.0342 13.7353C78.0342 14.6882 77.8721 15.5142 77.548 16.2133C77.2238 16.9085 76.7747 17.4474 76.2006 17.8302C75.6265 18.209 74.9645 18.3984 74.2147 18.3984C73.6367 18.3984 73.1739 18.3027 72.8263 18.1113C72.4787 17.9161 72.2112 17.6954 72.0237 17.4494C71.8362 17.1994 71.6917 16.9924 71.5902 16.8284H71.4262V18.2109H70.0905ZM71.4496 13.7118C71.4496 14.3914 71.5492 14.9909 71.7484 15.5103C71.9475 16.0258 72.2385 16.43 72.6212 16.723C73.004 17.012 73.4726 17.1565 74.0272 17.1565C74.6052 17.1565 75.0875 17.0041 75.4742 16.6995C75.8647 16.391 76.1576 15.977 76.3529 15.4576C76.5521 14.9343 76.6517 14.3523 76.6517 13.7118C76.6517 13.0792 76.554 12.509 76.3588 12.0012C76.1674 11.4896 75.8764 11.0854 75.4859 10.7886C75.0992 10.4879 74.613 10.3375 74.0272 10.3375C73.4648 10.3375 72.9922 10.4801 72.6095 10.7652C72.2268 11.0464 71.9378 11.4408 71.7425 11.9485C71.5472 12.4523 71.4496 13.0401 71.4496 13.7118ZM83.8045 18.3984C82.9922 18.3984 82.2794 18.2051 81.6663 17.8184C81.057 17.4318 80.5806 16.8909 80.2369 16.1957C79.8971 15.5005 79.7272 14.6882 79.7272 13.7587C79.7272 12.8214 79.8971 12.0032 80.2369 11.3041C80.5806 10.605 81.057 10.0622 81.6663 9.67555C82.2794 9.28891 82.9922 9.09558 83.8045 9.09558C84.6169 9.09558 85.3277 9.28891 85.9369 9.67555C86.5501 10.0622 87.0265 10.605 87.3663 11.3041C87.71 12.0032 87.8818 12.8214 87.8818 13.7587C87.8818 14.6882 87.71 15.5005 87.3663 16.1957C87.0265 16.8909 86.5501 17.4318 85.9369 17.8184C85.3277 18.2051 84.6169 18.3984 83.8045 18.3984ZM83.8045 17.1565C84.4216 17.1565 84.9293 16.9983 85.3277 16.6819C85.726 16.3656 86.0209 15.9497 86.2122 15.4342C86.4036 14.9186 86.4993 14.3601 86.4993 13.7587C86.4993 13.1573 86.4036 12.5968 86.2122 12.0774C86.0209 11.558 85.726 11.1381 85.3277 10.8179C84.9293 10.4976 84.4216 10.3375 83.8045 10.3375C83.1875 10.3375 82.6798 10.4976 82.2814 10.8179C81.883 11.1381 81.5882 11.558 81.3968 12.0774C81.2054 12.5968 81.1098 13.1573 81.1098 13.7587C81.1098 14.3601 81.2054 14.9186 81.3968 15.4342C81.5882 15.9497 81.883 16.3656 82.2814 16.6819C82.6798 16.9983 83.1875 17.1565 83.8045 17.1565ZM93.6478 18.3984C92.8354 18.3984 92.1227 18.2051 91.5095 17.8184C90.9003 17.4318 90.4238 16.8909 90.0801 16.1957C89.7403 15.5005 89.5705 14.6882 89.5705 13.7587C89.5705 12.8214 89.7403 12.0032 90.0801 11.3041C90.4238 10.605 90.9003 10.0622 91.5095 9.67555C92.1227 9.28891 92.8354 9.09558 93.6478 9.09558C94.4601 9.09558 95.1709 9.28891 95.7801 9.67555C96.3933 10.0622 96.8698 10.605 97.2095 11.3041C97.5532 12.0032 97.7251 12.8214 97.7251 13.7587C97.7251 14.6882 97.5532 15.5005 97.2095 16.1957C96.8698 16.8909 96.3933 17.4318 95.7801 17.8184C95.1709 18.2051 94.4601 18.3984 93.6478 18.3984ZM93.6478 17.1565C94.2648 17.1565 94.7725 16.9983 95.1709 16.6819C95.5692 16.3656 95.8641 15.9497 96.0555 15.4342C96.2468 14.9186 96.3425 14.3601 96.3425 13.7587C96.3425 13.1573 96.2468 12.5968 96.0555 12.0774C95.8641 11.558 95.5692 11.1381 95.1709 10.8179C94.7725 10.4976 94.2648 10.3375 93.6478 10.3375C93.0307 10.3375 92.523 10.4976 92.1246 10.8179C91.7263 11.1381 91.4314 11.558 91.24 12.0774C91.0487 12.5968 90.953 13.1573 90.953 13.7587C90.953 14.3601 91.0487 14.9186 91.24 15.4342C91.4314 15.9497 91.7263 16.3656 92.1246 16.6819C92.523 16.9983 93.0307 17.1565 93.6478 17.1565ZM101.124 14.9303L101.101 13.2198H101.382L105.319 9.21275H107.029L102.835 13.4541H102.718L101.124 14.9303ZM99.8355 18.2109V6.21335H101.218V18.2109H99.8355ZM105.553 18.2109L102.038 13.7587L103.022 12.798L107.311 18.2109H105.553Z" fill="black"/>
<path d="M13.8455 23.687V13.4815H17.1639L17.6572 9.48575H13.8455V6.94061C13.8455 5.78758 14.1551 4.99814 15.7501 4.99814H17.7712V1.43569C16.7878 1.32635 15.7994 1.27356 14.8104 1.27755C11.8772 1.27755 9.86328 3.13536 9.86328 6.54589V9.47828H6.56641V13.4741H9.87048V23.687H13.8455Z" fill="#4092FF"/>
</svg>
