<svg width="94" height="26" viewBox="0 0 94 26" fill="none" xmlns="http://www.w3.org/2000/svg">
<path d="M23.3048 10.8732H22.4743V10.8304H13.1949V14.9545H19.0219C18.1718 17.3553 15.8875 19.0787 13.1949 19.0787C9.77859 19.0787 7.00869 16.3088 7.00869 12.8925C7.00869 9.4761 9.77859 6.7062 13.1949 6.7062C14.7719 6.7062 16.2066 7.30111 17.299 8.27287L20.2153 5.35657C18.3739 3.6404 15.9107 2.58203 13.1949 2.58203C7.50101 2.58203 2.88452 7.19852 2.88452 12.8925C2.88452 18.5864 7.50101 23.2029 13.1949 23.2029C18.8889 23.2029 23.5054 18.5864 23.5054 12.8925C23.5054 12.2011 23.4342 11.5263 23.3048 10.8732Z" fill="#FFC107"/>
<path d="M4.07324 8.09347L7.46073 10.5778C8.37733 8.30844 10.5972 6.7062 13.1949 6.7062C14.7719 6.7062 16.2065 7.30111 17.2989 8.27287L20.2152 5.35657C18.3738 3.6404 15.9106 2.58203 13.1949 2.58203C9.23464 2.58203 5.80024 4.81785 4.07324 8.09347Z" fill="#FF3D00"/>
<path d="M13.195 23.2019C15.8581 23.2019 18.278 22.1828 20.1076 20.5254L16.9165 17.8251C15.8466 18.6388 14.5392 19.0788 13.195 19.0778C10.5132 19.0778 8.23617 17.3678 7.37834 14.9814L4.01611 17.5719C5.72249 20.911 9.18782 23.2019 13.195 23.2019Z" fill="#4CAF50"/>
<path d="M23.305 10.8729H22.4744V10.8301H13.1951V14.9542H19.022C18.6154 16.0969 17.8829 17.0953 16.9151 17.8262L16.9166 17.8252L20.1077 20.5255C19.8819 20.7307 23.5055 18.0474 23.5055 12.8922C23.5055 12.2008 23.4343 11.526 23.305 10.8729Z" fill="#1976D2"/>
<path d="M47.582 9.9626C47.4532 9.56815 47.2833 9.2147 47.0724 8.90226C46.8654 8.58592 46.6174 8.31644 46.3284 8.09383C46.0433 7.87122 45.7191 7.70133 45.3559 7.58417C44.9927 7.46701 44.5944 7.40842 44.1609 7.40842C43.4501 7.40842 42.8037 7.59198 42.2218 7.95909C41.6399 8.32621 41.1771 8.86712 40.8334 9.58182C40.4897 10.2965 40.3179 11.1733 40.3179 12.2121C40.3179 13.251 40.4917 14.1278 40.8393 14.8425C41.1868 15.5572 41.6575 16.0981 42.2511 16.4652C42.8447 16.8323 43.5125 17.0159 44.2546 17.0159C44.9419 17.0159 45.5473 16.8694 46.0706 16.5765C46.5979 16.2797 47.0079 15.8618 47.3008 15.3228C47.5977 14.78 47.7461 14.1414 47.7461 13.4072L48.1913 13.5009H44.5826V12.2121H49.152V13.5009C49.152 14.489 48.9411 15.3482 48.5194 16.0786C48.1015 16.8089 47.5235 17.3752 46.7853 17.7774C46.0511 18.1758 45.2075 18.375 44.2546 18.375C43.1923 18.375 42.2589 18.125 41.4544 17.6251C40.6537 17.1252 40.0289 16.4144 39.5797 15.4927C39.1345 14.571 38.9119 13.4775 38.9119 12.2121C38.9119 11.2631 39.0388 10.4098 39.2927 9.65211C39.5505 8.89055 39.9137 8.24224 40.3823 7.70719C40.851 7.17214 41.4055 6.76207 42.046 6.47697C42.6865 6.19187 43.3915 6.04932 44.1609 6.04932C44.7935 6.04932 45.3833 6.14501 45.93 6.33637C46.4807 6.52384 46.9708 6.79136 47.4004 7.13895C47.8339 7.48263 48.1952 7.89465 48.4842 8.37503C48.7732 8.85149 48.9724 9.38068 49.0817 9.9626H47.582ZM55.1084 18.3984C54.296 18.3984 53.5833 18.2051 52.9701 17.8184C52.3609 17.4318 51.8844 16.8909 51.5407 16.1957C51.2009 15.5005 51.0311 14.6882 51.0311 13.7587C51.0311 12.8214 51.2009 12.0032 51.5407 11.3041C51.8844 10.605 52.3609 10.0622 52.9701 9.67555C53.5833 9.28891 54.296 9.09558 55.1084 9.09558C55.9207 9.09558 56.6315 9.28891 57.2407 9.67555C57.8539 10.0622 58.3304 10.605 58.6701 11.3041C59.0138 12.0032 59.1857 12.8214 59.1857 13.7587C59.1857 14.6882 59.0138 15.5005 58.6701 16.1957C58.3304 16.8909 57.8539 17.4318 57.2407 17.8184C56.6315 18.2051 55.9207 18.3984 55.1084 18.3984ZM55.1084 17.1565C55.7254 17.1565 56.2331 16.9983 56.6315 16.6819C57.0298 16.3656 57.3247 15.9497 57.5161 15.4342C57.7074 14.9186 57.8031 14.3601 57.8031 13.7587C57.8031 13.1573 57.7074 12.5968 57.5161 12.0774C57.3247 11.558 57.0298 11.1381 56.6315 10.8179C56.2331 10.4976 55.7254 10.3375 55.1084 10.3375C54.4913 10.3375 53.9836 10.4976 53.5852 10.8179C53.1869 11.1381 52.892 11.558 52.7006 12.0774C52.5093 12.5968 52.4136 13.1573 52.4136 13.7587C52.4136 14.3601 52.5093 14.9186 52.7006 15.4342C52.892 15.9497 53.1869 16.3656 53.5852 16.6819C53.9836 16.9983 54.4913 17.1565 55.1084 17.1565ZM64.9516 18.3984C64.1393 18.3984 63.4265 18.2051 62.8133 17.8184C62.2041 17.4318 61.7276 16.8909 61.3839 16.1957C61.0442 15.5005 60.8743 14.6882 60.8743 13.7587C60.8743 12.8214 61.0442 12.0032 61.3839 11.3041C61.7276 10.605 62.2041 10.0622 62.8133 9.67555C63.4265 9.28891 64.1393 9.09558 64.9516 9.09558C65.7639 9.09558 66.4747 9.28891 67.084 9.67555C67.6971 10.0622 68.1736 10.605 68.5134 11.3041C68.8571 12.0032 69.0289 12.8214 69.0289 13.7587C69.0289 14.6882 68.8571 15.5005 68.5134 16.1957C68.1736 16.8909 67.6971 17.4318 67.084 17.8184C66.4747 18.2051 65.7639 18.3984 64.9516 18.3984ZM64.9516 17.1565C65.5687 17.1565 66.0764 16.9983 66.4747 16.6819C66.8731 16.3656 67.1679 15.9497 67.3593 15.4342C67.5507 14.9186 67.6464 14.3601 67.6464 13.7587C67.6464 13.1573 67.5507 12.5968 67.3593 12.0774C67.1679 11.558 66.8731 11.1381 66.4747 10.8179C66.0764 10.4976 65.5687 10.3375 64.9516 10.3375C64.3345 10.3375 63.8268 10.4976 63.4285 10.8179C63.0301 11.1381 62.7352 11.558 62.5439 12.0774C62.3525 12.5968 62.2568 13.1573 62.2568 13.7587C62.2568 14.3601 62.3525 14.9186 62.5439 15.4342C62.7352 15.9497 63.0301 16.3656 63.4285 16.6819C63.8268 16.9983 64.3345 17.1565 64.9516 17.1565ZM74.7714 21.7727C74.1036 21.7727 73.5295 21.6868 73.0491 21.515C72.5687 21.347 72.1684 21.1244 71.8482 20.8471C71.5318 20.5737 71.2799 20.2808 71.0924 19.9684L72.1938 19.1951C72.3188 19.3591 72.4769 19.5466 72.6683 19.7575C72.8597 19.9723 73.1213 20.1578 73.4533 20.314C73.7892 20.4742 74.2285 20.5542 74.7714 20.5542C75.4978 20.5542 76.0973 20.3785 76.5699 20.027C77.0424 19.6755 77.2787 19.1248 77.2787 18.375V16.5472H77.1615C77.06 16.7112 76.9155 16.9143 76.728 17.1565C76.5445 17.3947 76.2789 17.6075 75.9313 17.795C75.5876 17.9786 75.1229 18.0703 74.5371 18.0703C73.8106 18.0703 73.1584 17.8985 72.5804 17.5548C72.0063 17.2111 71.5513 16.7112 71.2155 16.0551C70.8835 15.399 70.7175 14.6023 70.7175 13.665C70.7175 12.7433 70.8796 11.9407 71.2037 11.2573C71.5279 10.5699 71.979 10.0388 72.557 9.66383C73.135 9.285 73.8028 9.09558 74.5605 9.09558C75.1463 9.09558 75.6111 9.19322 75.9547 9.38849C76.3023 9.57986 76.5679 9.79857 76.7515 10.0446C76.9389 10.2868 77.0834 10.4859 77.185 10.6421H77.3256V9.21275H78.6612V18.4687C78.6612 19.242 78.4855 19.8708 78.134 20.355C77.7864 20.8432 77.3178 21.2006 76.728 21.4271C76.1422 21.6575 75.49 21.7727 74.7714 21.7727ZM74.7245 16.8284C75.2791 16.8284 75.7478 16.7015 76.1305 16.4476C76.5132 16.1938 76.8042 15.8286 77.0034 15.3521C77.2025 14.8757 77.3021 14.3055 77.3021 13.6415C77.3021 12.9932 77.2045 12.4211 77.0092 11.9251C76.8139 11.4291 76.5249 11.0405 76.1422 10.7593C75.7595 10.4781 75.2869 10.3375 74.7245 10.3375C74.1387 10.3375 73.6505 10.4859 73.26 10.7827C72.8733 11.0796 72.5824 11.4779 72.3871 11.9778C72.1957 12.4777 72.1001 13.0323 72.1001 13.6415C72.1001 14.2664 72.1977 14.819 72.393 15.2994C72.5921 15.7759 72.8851 16.1508 73.2717 16.4242C73.6622 16.6937 74.1465 16.8284 74.7245 16.8284ZM82.5745 6.21335V18.2109H81.192V6.21335H82.5745ZM88.8794 18.3984C88.0124 18.3984 87.2645 18.207 86.6357 17.8243C86.0108 17.4377 85.5285 16.8987 85.1887 16.2074C84.8529 15.5123 84.6849 14.7038 84.6849 13.7821C84.6849 12.8605 84.8529 12.0481 85.1887 11.3451C85.5285 10.6382 86.0011 10.0876 86.6064 9.69312C87.2157 9.29476 87.9265 9.09558 88.7388 9.09558C89.2075 9.09558 89.6702 9.17369 90.1272 9.32991C90.5841 9.48613 91.0001 9.73999 91.375 10.0915C91.7499 10.4391 92.0487 10.8999 92.2713 11.474C92.4939 12.0481 92.6052 12.755 92.6052 13.5947V14.1805H85.6691V12.9854H91.1992C91.1992 12.4777 91.0977 12.0247 90.8946 11.6263C90.6954 11.228 90.4103 10.9136 90.0393 10.6832C89.6722 10.4527 89.2387 10.3375 88.7388 10.3375C88.1881 10.3375 87.7117 10.4742 87.3094 10.7476C86.911 11.0171 86.6045 11.3686 86.3897 11.8021C86.1749 12.2356 86.0675 12.7003 86.0675 13.1963V13.993C86.0675 14.6726 86.1846 15.2486 86.4189 15.7212C86.6572 16.1899 86.9872 16.5472 87.409 16.7933C87.8308 17.0354 88.3209 17.1565 88.8794 17.1565C89.2426 17.1565 89.5707 17.1057 89.8636 17.0041C90.1604 16.8987 90.4162 16.7425 90.631 16.5355C90.8458 16.3246 91.0118 16.0629 91.1289 15.7505L92.4646 16.1254C92.324 16.5785 92.0877 16.9768 91.7558 17.3205C91.4238 17.6603 91.0137 17.9258 90.5255 18.1172C90.0374 18.3047 89.4886 18.3984 88.8794 18.3984Z" fill="black"/>
</svg>
