<svg width="113" height="112" viewBox="0 0 113 112" fill="none" xmlns="http://www.w3.org/2000/svg">
<rect x="0.94043" width="112" height="112" rx="16" fill="#1572D3" fill-opacity="0.1"/>
<path d="M74.1809 49.4C72.1009 40.14 64.0209 36 56.9409 36C56.9409 36 56.9409 36 56.9209 36C49.8609 36 41.8009 40.14 39.7009 49.38C37.3409 59.7 43.6609 68.44 49.3809 73.96C51.5009 76 54.2209 77.02 56.9409 77.02C59.6609 77.02 62.3809 76 64.4809 73.96C70.2009 68.44 76.5209 59.72 74.1809 49.4ZM63.5009 51.06L55.5009 59.06C55.2009 59.36 54.8209 59.5 54.4409 59.5C54.0609 59.5 53.6809 59.36 53.3809 59.06L50.3809 56.06C49.8009 55.48 49.8009 54.52 50.3809 53.94C50.9609 53.36 51.9209 53.36 52.5009 53.94L54.4409 55.88L61.3809 48.94C61.9609 48.36 62.9209 48.36 63.5009 48.94C64.0809 49.52 64.0809 50.48 63.5009 51.06Z" fill="#4A90E2"/>
</svg>
